<?xml version="1.0" encoding="UTF-8" standalone="no"?>
<!DOCTYPE svg PUBLIC "-//W3C//DTD SVG 1.1//EN" "http://www.w3.org/Graphics/SVG/1.1/DTD/svg11.dtd">
<svg width="100%" height="100%" viewBox="0 0 130 46" version="1.1" xmlns="http://www.w3.org/2000/svg" xmlns:xlink="http://www.w3.org/1999/xlink" xml:space="preserve" xmlns:serif="http://www.serif.com/" style="fill-rule:evenodd;clip-rule:evenodd;stroke-linejoin:round;stroke-miterlimit:2;">
    <g transform="matrix(0.440297,0,0,0.440297,-485.911,-152.867)">
        <g>
            <g transform="matrix(0.376769,0,0,0.236294,1151.23,289.733)">
                <g>
                    <g transform="matrix(219.892,0,0,350.615,98.0183,572.858)">
                        <path d="M0.04,-0.079L0.295,-0.384L0.047,-0.384L0.047,-0.48L0.453,-0.48L0.453,-0.401L0.199,-0.096L0.461,-0.096L0.461,-0L0.04,-0L0.04,-0.079Z" style="fill-rule:nonzero;"/>
                    </g>
                    <g transform="matrix(219.892,0,0,350.615,208.184,572.858)">
                        <path d="M0.33,0.015C0.241,0.015 0.17,-0.007 0.118,-0.052C0.066,-0.097 0.04,-0.159 0.04,-0.239C0.04,-0.318 0.063,-0.38 0.109,-0.426C0.155,-0.472 0.221,-0.495 0.306,-0.495C0.362,-0.495 0.41,-0.484 0.45,-0.463C0.489,-0.442 0.519,-0.413 0.539,-0.376C0.559,-0.339 0.569,-0.296 0.569,-0.249L0.569,-0.191L0.16,-0.191C0.169,-0.12 0.231,-0.084 0.346,-0.084C0.377,-0.084 0.408,-0.087 0.44,-0.092C0.472,-0.097 0.5,-0.105 0.524,-0.114L0.524,-0.017C0.501,-0.008 0.472,0 0.437,0.006C0.401,0.012 0.365,0.015 0.33,0.015ZM0.45,-0.277C0.449,-0.315 0.435,-0.344 0.41,-0.365C0.384,-0.386 0.349,-0.396 0.304,-0.396C0.26,-0.396 0.225,-0.385 0.2,-0.364C0.175,-0.343 0.161,-0.314 0.16,-0.277L0.45,-0.277Z" style="fill-rule:nonzero;"/>
                    </g>
                    <g transform="matrix(219.892,0,0,350.615,342.098,572.858)">
                        <path d="M0.247,0.015C0.212,0.015 0.175,0.011 0.136,0.003C0.097,-0.005 0.066,-0.016 0.044,-0.03L0.044,-0.137C0.07,-0.121 0.101,-0.108 0.137,-0.099C0.173,-0.089 0.207,-0.084 0.239,-0.084C0.271,-0.084 0.294,-0.087 0.309,-0.093C0.324,-0.098 0.331,-0.109 0.331,-0.124C0.331,-0.136 0.327,-0.146 0.32,-0.154C0.312,-0.161 0.3,-0.168 0.283,-0.175C0.266,-0.181 0.239,-0.189 0.204,-0.198C0.164,-0.209 0.133,-0.221 0.11,-0.233C0.087,-0.245 0.069,-0.26 0.058,-0.279C0.046,-0.297 0.04,-0.321 0.04,-0.35C0.04,-0.398 0.059,-0.434 0.097,-0.459C0.135,-0.483 0.186,-0.495 0.251,-0.495C0.284,-0.495 0.318,-0.492 0.351,-0.486C0.384,-0.479 0.409,-0.47 0.428,-0.459L0.428,-0.356C0.408,-0.368 0.384,-0.378 0.355,-0.385C0.326,-0.392 0.297,-0.396 0.267,-0.396C0.234,-0.396 0.21,-0.393 0.193,-0.387C0.176,-0.38 0.168,-0.368 0.168,-0.35C0.168,-0.338 0.173,-0.329 0.182,-0.322C0.191,-0.315 0.202,-0.309 0.217,-0.304C0.232,-0.299 0.258,-0.291 0.297,-0.281C0.338,-0.27 0.371,-0.257 0.394,-0.244C0.417,-0.231 0.434,-0.215 0.444,-0.196C0.454,-0.177 0.459,-0.154 0.459,-0.126C0.459,-0.083 0.441,-0.049 0.405,-0.024C0.368,0.002 0.316,0.015 0.247,0.015Z" style="fill-rule:nonzero;"/>
                    </g>
                    <g transform="matrix(219.892,0,0,350.615,448.526,572.858)">
                        <path d="M0.253,0.015C0.2,0.015 0.16,0 0.133,-0.029C0.106,-0.058 0.092,-0.1 0.092,-0.153L0.092,-0.384L0.02,-0.384L0.02,-0.48L0.092,-0.48L0.092,-0.624L0.218,-0.624L0.218,-0.48L0.333,-0.48L0.333,-0.384L0.218,-0.384L0.218,-0.169C0.218,-0.138 0.224,-0.117 0.235,-0.104C0.246,-0.091 0.267,-0.084 0.297,-0.084C0.318,-0.084 0.338,-0.089 0.358,-0.098L0.358,-0.002C0.329,0.009 0.294,0.015 0.253,0.015Z" style="fill-rule:nonzero;"/>
                    </g>
                    <g transform="matrix(219.892,0,0,350.615,525.048,572.858)">
                        <path d="M0.175,0.198C0.158,0.198 0.139,0.197 0.121,0.195C0.101,0.192 0.087,0.189 0.076,0.185L0.076,0.089C0.093,0.096 0.113,0.099 0.138,0.099C0.163,0.099 0.182,0.093 0.195,0.082C0.208,0.071 0.219,0.053 0.228,0.028L0.247,-0.022L0.04,-0.48L0.167,-0.48L0.315,-0.13L0.454,-0.48L0.58,-0.48L0.37,0.043C0.349,0.096 0.323,0.135 0.293,0.16C0.262,0.185 0.223,0.198 0.175,0.198Z" style="fill-rule:nonzero;"/>
                    </g>
                </g>
            </g>
            <g transform="matrix(0.942069,0.252427,-0.215469,0.804141,867.111,-133.775)">
                <g transform="matrix(-0.773149,0,0,0.702461,613.833,246.936)">
                    <path d="M265.106,399.939C267.933,383.099 259.638,366.493 246.578,362.847C233.519,359.2 220.639,369.893 217.809,386.732C216.946,391.021 216.575,395.468 216.575,400C216.575,443.865 251.316,479.681 294.761,481.409C295.316,481.426 295.824,481.009 296.047,480.353C296.27,479.697 296.163,478.933 295.777,478.419C282.311,461.074 263.383,448.513 263.383,417.786C263.383,412.211 264.006,406.188 265.106,399.939Z" style="fill:rgb(252,41,41);"/>
                </g>
                <g transform="matrix(0.971904,0.305089,-0.108593,1.01252,200.258,-57.4941)">
                    <ellipse cx="282.226" cy="453.557" rx="6.346" ry="8.501" style="fill:rgb(17,217,41);"/>
                </g>
            </g>
        </g>
    </g>
</svg>
